<svg width="800" height="300" viewBox="0 0 800 300" fill="none" xmlns="http://www.w3.org/2000/svg">
<g clip-path="url(#clip0_360_20)">
<path fill-rule="evenodd" clip-rule="evenodd" d="M282.807 258.017L189.847 203.763L148.183 179.416L117.128 197.346L75.6997 173.427V125.59L117.128 101.672L158.556 125.59V155.305L216.118 188.595L282.807 227.681L349.496 188.595V110.422L282.807 71.336L251.305 90.0041L225.636 76.0031L282.807 41.0003L375.768 95.2545V203.763L282.807 258.017Z" fill="#5D5FEF"/>
<path fill-rule="evenodd" clip-rule="evenodd" d="M115.961 41L208.921 95.2542L250.005 119.263L280.473 101.672L321.901 125.59V173.427L280.473 197.346L239.045 173.427V143.037L182.65 110.422L115.961 71.3357L49.2715 110.422V188.595L115.961 227.681L147.463 209.013L173.132 223.014L115.961 258.017L23 203.763V95.2542L115.961 41Z" fill="#00A3A3"/>
<path d="M410.98 108.58H434.878V118.182H398.561V70.5298H410.98V108.58ZM457.889 81.3599C461.691 81.3599 465.012 82.106 467.852 83.5981C470.74 85.0422 472.979 87.1841 474.567 90.024C476.204 92.8158 477.022 96.1851 477.022 100.132C477.022 104.079 476.204 107.472 474.567 110.312C472.979 113.104 470.74 115.246 467.852 116.738C465.012 118.182 461.691 118.904 457.889 118.904C454.182 118.904 450.885 118.182 447.997 116.738C445.109 115.246 442.847 113.104 441.21 110.312C439.622 107.472 438.828 104.079 438.828 100.132C438.828 96.1851 439.622 92.8158 441.21 90.024C442.847 87.1841 445.109 85.0422 447.997 83.5981C450.885 82.106 454.182 81.3599 457.889 81.3599ZM457.889 90.0962C456.493 90.0962 455.289 90.4331 454.279 91.107C453.268 91.7809 452.498 92.8639 451.968 94.356C451.439 95.8482 451.174 97.7735 451.174 100.132C451.174 102.491 451.439 104.416 451.968 105.908C452.498 107.352 453.268 108.435 454.279 109.157C455.289 109.831 456.493 110.168 457.889 110.168C459.333 110.168 460.56 109.831 461.571 109.157C462.582 108.435 463.352 107.352 463.881 105.908C464.411 104.416 464.676 102.491 464.676 100.132C464.676 97.7735 464.411 95.8482 463.881 94.356C463.352 92.8639 462.582 91.7809 461.571 91.107C460.56 90.4331 459.333 90.0962 457.889 90.0962ZM483.927 118.182V82.0819H494.901L495.262 89.0854C496.417 86.5343 498.03 84.6089 500.1 83.3093C502.217 82.0097 504.648 81.3599 507.392 81.3599C510.087 81.3599 512.422 81.9616 514.395 83.1649C516.369 84.3683 517.837 86.1492 518.8 88.5078C519.57 86.9194 520.556 85.5957 521.76 84.5367C523.011 83.4778 524.431 82.6836 526.02 82.1541C527.608 81.6247 529.245 81.3599 530.929 81.3599C533.336 81.3599 535.454 81.8413 537.283 82.8039C539.112 83.7185 540.556 85.1384 541.615 87.0638C542.722 88.941 543.276 91.2995 543.276 94.1394V118.182H531.001V96.9553C531.001 94.6448 530.544 93.0324 529.63 92.1178C528.763 91.2033 527.584 90.746 526.092 90.746C524.888 90.746 523.781 91.0589 522.771 91.6846C521.808 92.2622 521.062 93.1527 520.532 94.356C520.003 95.5594 519.738 97.0756 519.738 98.9047V118.182H507.464V96.9553C507.464 94.6448 507.007 93.0324 506.092 92.1178C505.178 91.2033 503.998 90.746 502.554 90.746C501.447 90.746 500.388 91.0348 499.378 91.6124C498.415 92.19 497.645 93.1046 497.067 94.356C496.49 95.5594 496.201 97.1478 496.201 99.1213V118.182H483.927ZM575.073 118.904C572.715 118.904 570.621 118.375 568.792 117.316C567.011 116.257 565.543 114.813 564.387 112.984C563.232 111.107 562.486 108.989 562.149 106.63L563.304 105.114L562.655 118.182H551.897V66.7754H564.171V93.4174L563.016 91.6846C563.69 88.7003 565.061 86.2455 567.131 84.3201C569.201 82.3467 571.993 81.3599 575.506 81.3599C578.298 81.3599 580.777 82.106 582.943 83.5981C585.157 85.0903 586.866 87.2563 588.069 90.0962C589.321 92.888 589.946 96.2814 589.946 100.276C589.946 104.175 589.321 107.521 588.069 110.312C586.818 113.104 585.085 115.246 582.871 116.738C580.657 118.182 578.057 118.904 575.073 118.904ZM570.813 109.879C572.931 109.879 574.592 109.109 575.795 107.569C576.998 105.98 577.6 103.501 577.6 100.132C577.6 96.7627 576.998 94.3079 575.795 92.7676C574.592 91.1792 572.931 90.385 570.813 90.385C569.417 90.385 568.214 90.7941 567.203 91.6124C566.241 92.3826 565.495 93.4896 564.965 94.9336C564.436 96.3777 564.171 98.1345 564.171 100.204C564.171 102.274 564.436 104.031 564.965 105.475C565.495 106.919 566.265 108.026 567.275 108.796C568.286 109.518 569.466 109.879 570.813 109.879ZM614.347 81.3599C618.149 81.3599 621.471 82.106 624.311 83.5981C627.199 85.0422 629.437 87.1841 631.025 90.024C632.662 92.8158 633.48 96.1851 633.48 100.132C633.48 104.079 632.662 107.472 631.025 110.312C629.437 113.104 627.199 115.246 624.311 116.738C621.471 118.182 618.149 118.904 614.347 118.904C610.641 118.904 607.343 118.182 604.455 116.738C601.567 115.246 599.305 113.104 597.669 110.312C596.08 107.472 595.286 104.079 595.286 100.132C595.286 96.1851 596.08 92.8158 597.669 90.024C599.305 87.1841 601.567 85.0422 604.455 83.5981C607.343 82.106 610.641 81.3599 614.347 81.3599ZM614.347 90.0962C612.951 90.0962 611.748 90.4331 610.737 91.107C609.726 91.7809 608.956 92.8639 608.426 94.356C607.897 95.8482 607.632 97.7735 607.632 100.132C607.632 102.491 607.897 104.416 608.426 105.908C608.956 107.352 609.726 108.435 610.737 109.157C611.748 109.831 612.951 110.168 614.347 110.168C615.791 110.168 617.018 109.831 618.029 109.157C619.04 108.435 619.81 107.352 620.34 105.908C620.869 104.416 621.134 102.491 621.134 100.132C621.134 97.7735 620.869 95.8482 620.34 94.356C619.81 92.8639 619.04 91.7809 618.029 91.107C617.018 90.4331 615.791 90.0962 614.347 90.0962ZM680.023 82.0819L662.695 100.565L660.384 101.215L650.06 112.767L649.988 100.204L666.377 82.0819H680.023ZM652.659 66.7754V118.182H640.385V66.7754H652.659ZM664.572 92.912L680.817 118.182H667.243L656.558 100.132L664.572 92.912ZM398.561 174.182V126.53H421.738C427.61 126.578 431.942 127.709 434.734 129.923C437.525 132.089 438.921 135.242 438.921 139.382C438.921 142.077 438.127 144.412 436.539 146.385C434.95 148.31 432.52 149.538 429.246 150.067V150.139C432.905 150.621 435.624 151.896 437.405 153.966C439.234 155.988 440.149 158.443 440.149 161.331C440.149 165.422 438.705 168.599 435.817 170.861C432.929 173.075 428.597 174.182 422.821 174.182H398.561ZM410.546 165.446H420.727C422.989 165.446 424.674 164.989 425.781 164.074C426.888 163.16 427.441 161.836 427.441 160.103C427.441 158.418 426.888 157.143 425.781 156.276C424.674 155.362 422.989 154.905 420.727 154.905H410.546V165.446ZM410.546 146.024H419.572C424 146.024 426.214 144.291 426.214 140.826C426.214 137.36 424 135.627 419.572 135.627H410.546V146.024ZM459.18 122.775V161.908C459.18 163.497 459.445 164.628 459.975 165.302C460.504 165.975 461.395 166.312 462.646 166.312C463.368 166.312 463.97 166.264 464.451 166.168C464.932 166.072 465.51 165.927 466.184 165.735L465.39 173.099C464.523 173.629 463.392 174.062 461.996 174.399C460.6 174.736 459.229 174.904 457.881 174.904C454.03 174.904 451.238 174.014 449.506 172.233C447.773 170.452 446.906 167.54 446.906 163.497V122.775H459.18ZM487.855 137.36C491.657 137.36 494.979 138.106 497.818 139.598C500.706 141.042 502.945 143.184 504.533 146.024C506.17 148.816 506.988 152.185 506.988 156.132C506.988 160.079 506.17 163.472 504.533 166.312C502.945 169.104 500.706 171.246 497.818 172.738C494.979 174.182 491.657 174.904 487.855 174.904C484.148 174.904 480.851 174.182 477.963 172.738C475.075 171.246 472.813 169.104 471.176 166.312C469.588 163.472 468.794 160.079 468.794 156.132C468.794 152.185 469.588 148.816 471.176 146.024C472.813 143.184 475.075 141.042 477.963 139.598C480.851 138.106 484.148 137.36 487.855 137.36ZM487.855 146.096C486.459 146.096 485.256 146.433 484.245 147.107C483.234 147.781 482.464 148.864 481.934 150.356C481.405 151.848 481.14 153.774 481.14 156.132C481.14 158.491 481.405 160.416 481.934 161.908C482.464 163.352 483.234 164.435 484.245 165.157C485.256 165.831 486.459 166.168 487.855 166.168C489.299 166.168 490.526 165.831 491.537 165.157C492.548 164.435 493.318 163.352 493.847 161.908C494.377 160.416 494.642 158.491 494.642 156.132C494.642 153.774 494.377 151.848 493.847 150.356C493.318 148.864 492.548 147.781 491.537 147.107C490.526 146.433 489.299 146.096 487.855 146.096ZM531.004 137.36C534.662 137.36 537.695 137.889 540.102 138.948C542.556 139.959 544.458 141.331 545.805 143.064C547.201 144.748 548.068 146.578 548.405 148.551L537.069 152.305C536.732 150.236 536.106 148.695 535.192 147.685C534.325 146.626 533.05 146.096 531.365 146.096C529.825 146.096 528.525 146.457 527.466 147.179C526.456 147.853 525.685 148.96 525.156 150.5C524.627 151.993 524.362 153.918 524.362 156.276C524.362 158.635 524.651 160.56 525.228 162.053C525.806 163.497 526.624 164.555 527.683 165.229C528.742 165.855 529.993 166.168 531.437 166.168C532.641 166.168 533.628 165.951 534.398 165.518C535.216 165.037 535.89 164.363 536.419 163.497C536.949 162.63 537.286 161.571 537.43 160.32L548.477 163.858C548.14 165.975 547.225 167.877 545.733 169.561C544.289 171.198 542.364 172.498 539.957 173.46C537.55 174.423 534.735 174.904 531.51 174.904C527.563 174.904 524.121 174.182 521.185 172.738C518.249 171.246 515.986 169.104 514.398 166.312C512.81 163.472 512.015 160.079 512.015 156.132C512.015 152.185 512.81 148.816 514.398 146.024C515.986 143.184 518.201 141.042 521.041 139.598C523.929 138.106 527.25 137.36 531.004 137.36ZM594.496 138.082L577.168 156.565L574.858 157.215L564.533 168.767L564.461 156.204L580.85 138.082H594.496ZM567.132 122.775V174.182H554.858V122.775H567.132ZM579.045 148.912L595.29 174.182H581.717L571.031 156.132L579.045 148.912ZM614.98 137.36C618.638 137.36 621.67 137.889 624.077 138.948C626.532 139.959 628.433 141.331 629.781 143.064C631.177 144.748 632.043 146.578 632.38 148.551L621.045 152.305C620.708 150.236 620.082 148.695 619.167 147.685C618.301 146.626 617.025 146.096 615.341 146.096C613.801 146.096 612.501 146.457 611.442 147.179C610.431 147.853 609.661 148.96 609.132 150.5C608.602 151.993 608.337 153.918 608.337 156.276C608.337 158.635 608.626 160.56 609.204 162.053C609.781 163.497 610.6 164.555 611.659 165.229C612.718 165.855 613.969 166.168 615.413 166.168C616.616 166.168 617.603 165.951 618.373 165.518C619.192 165.037 619.865 164.363 620.395 163.497C620.924 162.63 621.261 161.571 621.406 160.32L632.452 163.858C632.115 165.975 631.201 167.877 629.709 169.561C628.265 171.198 626.339 172.498 623.933 173.46C621.526 174.423 618.71 174.904 615.485 174.904C611.538 174.904 608.097 174.182 605.161 172.738C602.224 171.246 599.962 169.104 598.374 166.312C596.785 163.472 595.991 160.079 595.991 156.132C595.991 152.185 596.785 148.816 598.374 146.024C599.962 143.184 602.176 141.042 605.016 139.598C607.904 138.106 611.225 137.36 614.98 137.36ZM638.834 174.182V122.775H651.108V144.652C652.167 142.245 653.683 140.44 655.656 139.237C657.63 137.986 659.916 137.36 662.515 137.36C665.018 137.36 667.184 137.841 669.014 138.804C670.891 139.767 672.359 141.187 673.418 143.064C674.477 144.941 675.006 147.3 675.006 150.139V174.182H662.732V153.533C662.732 150.934 662.251 149.153 661.288 148.19C660.373 147.179 659.146 146.674 657.606 146.674C656.451 146.674 655.368 146.963 654.357 147.54C653.346 148.118 652.552 149.032 651.974 150.284C651.397 151.535 651.108 153.172 651.108 155.193V174.182H638.834ZM703.75 151.295C703.75 149.61 703.269 148.286 702.306 147.324C701.392 146.313 700.14 145.807 698.552 145.807C696.964 145.807 695.592 146.217 694.437 147.035C693.33 147.805 692.559 149.201 692.126 151.222L681.729 148.768C682.403 145.302 684.184 142.534 687.072 140.465C689.96 138.395 694.027 137.36 699.274 137.36C702.788 137.36 705.772 137.889 708.227 138.948C710.73 139.959 712.631 141.499 713.931 143.569C715.279 145.591 715.952 148.094 715.952 151.078V164.291C715.952 166.168 716.795 167.107 718.479 167.107C719.346 167.107 720.044 167.01 720.573 166.818L719.851 173.821C718.407 174.495 716.65 174.832 714.581 174.832C712.703 174.832 711.043 174.543 709.599 173.966C708.155 173.34 707.024 172.425 706.205 171.222C705.387 169.971 704.978 168.406 704.978 166.529V166.096L706.35 165.59C706.35 167.66 705.724 169.393 704.472 170.789C703.269 172.185 701.681 173.22 699.707 173.893C697.782 174.567 695.76 174.904 693.642 174.904C691.188 174.904 689.046 174.519 687.217 173.749C685.387 172.979 683.968 171.872 682.957 170.428C681.994 168.936 681.513 167.107 681.513 164.941C681.513 162.341 682.283 160.199 683.823 158.515C685.412 156.782 687.89 155.579 691.26 154.905L704.906 152.089L704.834 158.587L697.902 160.031C696.458 160.32 695.375 160.753 694.653 161.331C693.979 161.86 693.642 162.678 693.642 163.785C693.642 164.844 694.027 165.639 694.798 166.168C695.568 166.697 696.482 166.962 697.541 166.962C698.36 166.962 699.13 166.842 699.852 166.601C700.622 166.361 701.296 166 701.873 165.518C702.451 164.989 702.908 164.339 703.245 163.569C703.582 162.799 703.75 161.884 703.75 160.825V151.295ZM731.555 133.894C729.052 133.894 727.223 133.437 726.068 132.522C724.961 131.56 724.407 130.068 724.407 128.046C724.407 125.976 724.961 124.484 726.068 123.57C727.223 122.607 729.052 122.126 731.555 122.126C734.01 122.126 735.815 122.607 736.97 123.57C738.125 124.484 738.703 125.976 738.703 128.046C738.703 130.068 738.125 131.56 736.97 132.522C735.815 133.437 734.01 133.894 731.555 133.894ZM737.692 138.082V174.182H725.418V138.082H737.692ZM746.43 174.182V138.082H757.404L758.054 150.5L756.682 149.129C757.163 146.529 758.006 144.363 759.209 142.631C760.461 140.898 762.001 139.598 763.83 138.732C765.707 137.817 767.801 137.36 770.111 137.36C772.614 137.36 774.78 137.841 776.609 138.804C778.487 139.767 779.955 141.187 781.014 143.064C782.073 144.941 782.602 147.3 782.602 150.139V174.182H770.328V153.388C770.328 150.886 769.847 149.153 768.884 148.19C767.921 147.227 766.694 146.746 765.202 146.746C764.046 146.746 762.963 147.035 761.953 147.612C760.942 148.142 760.148 149.008 759.57 150.212C758.992 151.415 758.704 153.027 758.704 155.049V174.182H746.43ZM417.189 182.808C421.617 182.808 425.516 183.506 428.885 184.902C432.303 186.249 435.263 188.247 437.766 190.894L431.773 198.909C429.704 196.743 427.466 195.13 425.059 194.071C422.7 192.964 420.005 192.411 416.972 192.411C415.191 192.411 413.747 192.603 412.64 192.988C411.533 193.373 410.739 193.903 410.258 194.577C409.776 195.25 409.536 196.021 409.536 196.887C409.536 197.898 409.993 198.764 410.907 199.486C411.87 200.16 413.41 200.738 415.528 201.219L423.543 203.024C428.308 204.131 431.798 205.744 434.012 207.861C436.226 209.979 437.333 212.795 437.333 216.309C437.333 219.678 436.467 222.542 434.734 224.901C433.001 227.211 430.618 228.968 427.586 230.171C424.553 231.327 421.088 231.904 417.189 231.904C414.012 231.904 410.98 231.567 408.092 230.893C405.204 230.171 402.604 229.161 400.294 227.861C397.984 226.561 396.034 225.069 394.446 223.385L400.438 215.082C401.642 216.477 403.11 217.729 404.843 218.836C406.624 219.895 408.549 220.737 410.619 221.363C412.737 221.989 414.879 222.302 417.045 222.302C418.729 222.302 420.125 222.133 421.232 221.796C422.387 221.459 423.23 220.954 423.759 220.28C424.289 219.606 424.553 218.812 424.553 217.897C424.553 216.887 424.192 216.044 423.47 215.37C422.748 214.648 421.377 214.047 419.355 213.565L410.546 211.616C407.851 210.99 405.444 210.172 403.326 209.161C401.257 208.102 399.62 206.706 398.417 204.973C397.213 203.192 396.612 200.978 396.612 198.331C396.612 195.347 397.43 192.699 399.067 190.389C400.703 188.03 403.062 186.177 406.142 184.829C409.223 183.482 412.905 182.808 417.189 182.808ZM461.414 194.36C465.217 194.36 468.538 195.106 471.378 196.598C474.266 198.042 476.504 200.184 478.092 203.024C479.729 205.816 480.547 209.185 480.547 213.132C480.547 217.079 479.729 220.472 478.092 223.312C476.504 226.104 474.266 228.246 471.378 229.738C468.538 231.182 465.217 231.904 461.414 231.904C457.708 231.904 454.411 231.182 451.523 229.738C448.635 228.246 446.372 226.104 444.736 223.312C443.147 220.472 442.353 217.079 442.353 213.132C442.353 209.185 443.147 205.816 444.736 203.024C446.372 200.184 448.635 198.042 451.523 196.598C454.411 195.106 457.708 194.36 461.414 194.36ZM461.414 203.096C460.018 203.096 458.815 203.433 457.804 204.107C456.793 204.781 456.023 205.864 455.494 207.356C454.964 208.848 454.699 210.774 454.699 213.132C454.699 215.491 454.964 217.416 455.494 218.908C456.023 220.352 456.793 221.435 457.804 222.157C458.815 222.831 460.018 223.168 461.414 223.168C462.858 223.168 464.086 222.831 465.096 222.157C466.107 221.435 466.877 220.352 467.407 218.908C467.936 217.416 468.201 215.491 468.201 213.132C468.201 210.774 467.936 208.848 467.407 207.356C466.877 205.864 466.107 204.781 465.096 204.107C464.086 203.433 462.858 203.096 461.414 203.096ZM504.564 194.36C508.222 194.36 511.254 194.889 513.661 195.948C516.116 196.959 518.017 198.331 519.365 200.064C520.761 201.748 521.627 203.578 521.964 205.551L510.628 209.305C510.291 207.236 509.666 205.695 508.751 204.685C507.885 203.626 506.609 203.096 504.925 203.096C503.384 203.096 502.085 203.457 501.026 204.179C500.015 204.853 499.245 205.96 498.715 207.5C498.186 208.993 497.921 210.918 497.921 213.276C497.921 215.635 498.21 217.56 498.788 219.053C499.365 220.497 500.183 221.555 501.242 222.229C502.301 222.855 503.553 223.168 504.997 223.168C506.2 223.168 507.187 222.951 507.957 222.518C508.775 222.037 509.449 221.363 509.979 220.497C510.508 219.63 510.845 218.571 510.989 217.32L522.036 220.858C521.699 222.975 520.785 224.877 519.293 226.561C517.848 228.198 515.923 229.498 513.516 230.46C511.11 231.423 508.294 231.904 505.069 231.904C501.122 231.904 497.68 231.182 494.744 229.738C491.808 228.246 489.546 226.104 487.957 223.312C486.369 220.472 485.575 217.079 485.575 213.132C485.575 209.185 486.369 205.816 487.957 203.024C489.546 200.184 491.76 198.042 494.6 196.598C497.488 195.106 500.809 194.36 504.564 194.36ZM534.554 190.894C532.052 190.894 530.222 190.437 529.067 189.522C527.96 188.56 527.407 187.068 527.407 185.046C527.407 182.976 527.96 181.484 529.067 180.57C530.222 179.607 532.052 179.126 534.554 179.126C537.009 179.126 538.814 179.607 539.97 180.57C541.125 181.484 541.702 182.976 541.702 185.046C541.702 187.068 541.125 188.56 539.97 189.522C538.814 190.437 537.009 190.894 534.554 190.894ZM540.692 195.082V231.182H528.417V195.082H540.692ZM567.046 231.904C563.051 231.904 559.585 231.158 556.649 229.666C553.761 228.174 551.523 226.032 549.934 223.24C548.346 220.448 547.552 217.079 547.552 213.132C547.552 209.185 548.346 205.816 549.934 203.024C551.523 200.232 553.737 198.09 556.577 196.598C559.465 195.106 562.762 194.36 566.468 194.36C570.271 194.36 573.496 195.106 576.143 196.598C578.839 198.042 580.884 200.064 582.28 202.663C583.676 205.214 584.374 208.15 584.374 211.471C584.374 212.338 584.35 213.204 584.302 214.071C584.254 214.937 584.182 215.659 584.085 216.237H555.494V209.666H578.67L572.822 211.905C572.822 209.017 572.292 206.802 571.234 205.262C570.223 203.722 568.634 202.952 566.468 202.952C564.928 202.952 563.604 203.313 562.497 204.035C561.438 204.757 560.62 205.888 560.042 207.428C559.513 208.969 559.248 210.942 559.248 213.349C559.248 215.707 559.561 217.633 560.187 219.125C560.813 220.569 561.703 221.628 562.858 222.302C564.013 222.927 565.409 223.24 567.046 223.24C568.875 223.24 570.319 222.879 571.378 222.157C572.485 221.435 573.303 220.424 573.833 219.125L583.652 222.374C582.978 224.444 581.799 226.2 580.114 227.644C578.478 229.04 576.504 230.099 574.194 230.821C571.931 231.543 569.549 231.904 567.046 231.904ZM605.907 183.602V218.331C605.907 220.063 606.316 221.315 607.135 222.085C608.001 222.807 609.18 223.168 610.673 223.168C611.828 223.168 612.815 223.048 613.633 222.807C614.499 222.518 615.269 222.109 615.943 221.58L617.243 229.161C616.039 230.027 614.523 230.701 612.694 231.182C610.865 231.664 608.988 231.904 607.063 231.904C604.319 231.904 601.936 231.519 599.915 230.749C597.941 229.979 596.401 228.751 595.294 227.067C594.235 225.382 593.681 223.144 593.633 220.352V186.995L605.907 183.602ZM616.665 195.082V203.818H587.424V195.082H616.665ZM658.652 195.082L645.511 231.182C644.163 234.985 642.695 238.017 641.107 240.28C639.518 242.542 637.641 244.178 635.475 245.189C633.309 246.2 630.71 246.705 627.678 246.705C625.656 246.705 623.803 246.489 622.118 246.056C620.433 245.622 618.965 245.021 617.714 244.251L620.169 235.947C621.035 236.573 621.95 237.006 622.912 237.247C623.875 237.536 625.102 237.68 626.594 237.68C627.99 237.68 629.122 237.44 629.988 236.958C630.902 236.477 631.624 235.562 632.154 234.215L633.093 231.976L628.905 222.157L618.075 195.082H631.576L637.136 215.659L638.869 223.312L640.89 215.37L646.45 195.082H658.652Z" fill="white"/>
</g>
<defs>
<clipPath id="clip0_360_20">
<rect width="800" height="300" fill="white"/>
</clipPath>
</defs>
</svg>
